<?xml version="1.0" encoding="iso-8859-1"?>
<!-- Generator: Adobe Illustrator 16.0.0, SVG Export Plug-In . SVG Version: 6.00 Build 0)  -->
<!DOCTYPE svg PUBLIC "-//W3C//DTD SVG 1.1//EN" "http://www.w3.org/Graphics/SVG/1.1/DTD/svg11.dtd">
<svg version="1.1" id="Capa_1" xmlns="http://www.w3.org/2000/svg" xmlns:xlink="http://www.w3.org/1999/xlink" x="0px" y="0px"
	 width="419.131px" height="419.131px" viewBox="0 0 419.131 419.131" style="enable-background:new 0 0 419.131 419.131;"
	 xml:space="preserve">
<g>
	<g>
		<path d="M168.3,190.802l11.475-21.038l-21.038-40.163l19.125-9.562l13.388,26.775l11.475-21.038l-42.075-84.15
			c-5.737-9.562-17.212-15.3-28.688-9.562l-17.212,5.737c-9.562,5.737-15.3,17.212-9.562,28.688L168.3,190.802z M124.312,55.015
			l15.3-7.65c1.913,0,1.913,0,1.913,0l26.775,53.55l-19.125,9.562L122.4,56.927C122.4,56.927,122.4,55.015,124.312,55.015z"/>
		<path d="M401.625,334.24H306l-53.55-105.188l-11.476,21.037l45.9,91.801l5.737,11.475H306h95.625v19.125h-114.75
			c-3.825,0-9.562-3.825-9.562-5.737l-45.9-91.8l-11.475,21.037l38.25,78.412c3.825,9.562,17.213,17.213,26.775,17.213h114.75
			c9.562,0,19.125-7.65,19.125-19.125v-19.125C420.75,341.89,413.1,334.24,401.625,334.24z"/>
		<path d="M306,37.802l-15.3-7.65c-9.562-5.738-22.95-1.913-28.688,9.562L114.75,334.24H19.125C9.562,334.24,0,341.89,0,353.365
			v19.125c0,11.475,9.562,19.125,19.125,19.125h114.75c11.475,0,22.95-7.65,26.775-17.213l153-307.912
			C319.388,55.015,315.562,43.54,306,37.802z M143.438,366.752c0,1.912-5.737,5.737-9.562,5.737H19.125v-19.125h95.625h11.475
			l5.737-11.475L244.8,118.127l19.125,9.562L143.438,366.752z M298.35,56.927l-26.774,53.55l-19.125-9.562l26.774-53.55
			c0,0,1.913-1.913,1.913,0l15.3,7.65C298.35,55.015,298.35,56.927,298.35,56.927z"/>
	</g>
</g>
<g>
</g>
<g>
</g>
<g>
</g>
<g>
</g>
<g>
</g>
<g>
</g>
<g>
</g>
<g>
</g>
<g>
</g>
<g>
</g>
<g>
</g>
<g>
</g>
<g>
</g>
<g>
</g>
<g>
</g>
</svg>
